<svg width="1600" height="1200" viewBox="0 0 1600 1200" fill="none" xmlns="http://www.w3.org/2000/svg">
  <rect width="1600" height="1200" fill="#E8EEE9"/>
  <rect x="88" y="88" width="1424" height="1024" rx="64" fill="#F5F8F4"/>
  <circle cx="1252" cy="282" r="210" fill="#C7D8D1"/>
  <circle cx="304" cy="884" r="236" fill="#B8CDC5"/>
  <path d="M346 382C452 288 634 252 820 252C1034 252 1210 310 1298 398C1200 478 1020 532 820 532C620 532 438 478 346 382Z" fill="#4B6C69"/>
  <path d="M404 634C504 548 654 512 812 512C988 512 1134 556 1210 634C1126 708 978 752 812 752C646 752 494 708 404 634Z" fill="#5F8A85"/>
  <path d="M470 844C560 772 680 744 812 744C962 744 1082 780 1148 844C1078 910 954 944 812 944C670 944 546 910 470 844Z" fill="#79A29B"/>
</svg>
